<?xml version="1.0" standalone="no"?>
<!DOCTYPE svg PUBLIC "-//W3C//DTD SVG 20010904//EN"
 "http://www.w3.org/TR/2001/REC-SVG-20010904/DTD/svg10.dtd">
<svg version="1.0" xmlns="http://www.w3.org/2000/svg"
 width="1280.000000pt" height="1280.000000pt" viewBox="0 0 1280.000000 1280.000000"
 preserveAspectRatio="xMidYMid meet">
<metadata>
Created by potrace 1.15, written by Peter Selinger 2001-2017
</metadata>
<g transform="translate(0.000000,1280.000000) scale(0.100000,-0.100000)"
fill="#000000" stroke="none">
<path d="M5840 12711 c-14 -28 -12 -171 5 -264 11 -65 19 -84 50 -118 84 -94
151 -227 191 -385 26 -105 57 -311 48 -325 -3 -5 -15 -9 -27 -9 -39 0 -296
-79 -356 -110 -32 -16 -83 -51 -113 -79 -177 -162 -206 -452 -83 -826 44 -134
77 -207 132 -289 39 -58 69 -168 84 -306 14 -127 6 -444 -16 -610 -26 -202
-13 -402 40 -598 149 -553 575 -763 1198 -592 167 46 217 76 369 219 574 540
661 1298 242 2122 -202 397 -536 773 -830 934 l-69 38 -33 101 c-99 310 -339
673 -669 1014 -77 79 -105 102 -126 102 -16 0 -30 -8 -37 -19z"/>
<path d="M3321 11836 c-28 -33 -99 -430 -122 -678 -22 -246 -3 -637 39 -792 7
-25 -2 -50 -58 -160 -107 -211 -173 -434 -222 -746 -19 -125 -22 -184 -23
-435 0 -188 5 -320 13 -375 64 -425 181 -713 385 -950 212 -246 531 -391 916
-416 90 -6 102 -5 191 25 354 119 646 349 770 606 113 233 119 495 20 795 -54
163 -117 287 -215 420 -164 223 -289 457 -337 629 -17 62 -21 108 -23 246 -2
130 -7 196 -24 280 -73 360 -210 561 -416 612 -101 25 -186 9 -378 -67 -83
-34 -157 -64 -163 -66 -26 -12 -134 286 -159 436 -18 113 -19 192 -4 293 11
74 11 75 -25 163 -48 119 -99 194 -130 194 -13 0 -29 -6 -35 -14z"/>
<path d="M9956 10245 c-22 -33 -44 -133 -52 -230 -6 -77 -5 -85 30 -173 56
-140 69 -227 64 -425 -2 -92 -9 -171 -14 -176 -5 -6 -34 -4 -74 6 -103 24
-219 15 -303 -25 -206 -96 -361 -366 -442 -771 -36 -179 -160 -526 -383 -1066
-150 -366 -177 -475 -176 -710 1 -120 6 -166 23 -230 26 -99 78 -209 135 -289
57 -80 183 -199 273 -259 97 -65 275 -148 403 -189 132 -42 240 -44 399 -9
286 63 507 183 685 371 208 222 335 515 393 909 24 163 24 569 0 736 -70 479
-195 831 -389 1096 -44 62 -48 71 -48 125 0 191 -96 556 -225 858 -61 143
-191 402 -222 444 -29 38 -55 41 -77 7z"/>
<path d="M999 6968 c-9 -16 -10 -84 -6 -248 12 -475 92 -889 223 -1167 30 -62
34 -81 34 -150 0 -102 24 -306 51 -428 115 -535 360 -1013 671 -1311 392 -376
844 -434 1362 -176 145 73 193 114 304 259 166 218 280 452 328 670 25 116 23
323 -5 428 -59 223 -209 432 -425 594 -50 37 -206 153 -346 258 -356 265 -517
400 -615 512 -81 94 -196 198 -285 258 -215 145 -423 162 -594 48 -63 -42
-177 -166 -233 -252 l-35 -56 -34 54 c-73 117 -126 279 -139 424 -7 74 -11 85
-53 145 -100 141 -174 191 -203 138z"/>
<path d="M7030 5929 c-183 -11 -361 -53 -565 -133 -60 -24 -158 -55 -217 -70
-134 -32 -272 -83 -408 -151 -453 -227 -735 -588 -831 -1062 -16 -82 -23 -157
-26 -308 -5 -198 -1 -251 39 -513 11 -75 10 -93 -10 -202 -41 -224 -130 -445
-254 -630 -75 -113 -224 -267 -328 -339 -89 -61 -128 -108 -182 -215 -66 -131
-90 -244 -91 -421 -2 -229 44 -421 165 -695 135 -309 209 -426 369 -587 191
-191 395 -305 668 -375 155 -39 250 -44 461 -24 436 42 878 122 1295 237 200
55 774 241 945 306 442 169 957 428 1373 690 90 57 147 102 217 172 378 380
564 879 521 1396 -37 448 -74 612 -186 822 -123 233 -340 396 -500 377 -65 -8
-231 11 -331 37 -182 48 -384 164 -538 310 -114 108 -190 209 -211 281 -25 88
-88 245 -140 349 -267 534 -676 781 -1235 748z"/>
</g>
</svg>
